<?xml version="1.0" standalone="no"?>
<!DOCTYPE svg PUBLIC "-//W3C//DTD SVG 20010904//EN"
 "http://www.w3.org/TR/2001/REC-SVG-20010904/DTD/svg10.dtd">
<svg version="1.0" xmlns="http://www.w3.org/2000/svg"
 width="256.000000pt" height="256.000000pt" viewBox="0 0 256.000000 256.000000"
 preserveAspectRatio="xMidYMid meet">
<metadata>
Created by potrace 1.11, written by Peter Selinger 2001-2013
</metadata>
<g transform="translate(0.000000,256.000000) scale(0.100000,-0.100000)"
fill="#000000" stroke="none">
<path d="M1707 2053 c-4 -5 -53 -8 -110 -6 -91 2 -109 0 -147 -20 -55 -28 -90
-85 -87 -142 2 -34 -2 -41 -25 -53 -25 -11 -83 -17 -143 -13 -12 0 -49 29 -84
62 l-63 61 -66 -5 c-88 -8 -116 -14 -247 -49 -60 -16 -119 -31 -129 -34 -122
-24 -287 -113 -357 -191 -72 -80 -97 -140 -114 -268 -3 -27 -8 -59 -10 -70
-20 -92 -9 -117 61 -134 82 -21 249 -5 355 34 83 31 228 107 268 141 l40 34
-21 50 c-11 27 -29 52 -39 55 -51 16 11 46 103 50 79 4 168 -13 327 -61 141
-43 279 -74 326 -74 43 0 45 -12 5 -27 -27 -10 -37 -30 -31 -65 1 -11 -7 -10
-28 2 -30 16 -76 20 -110 10 -25 -7 -37 -6 -47 5 -10 10 -22 11 -42 5 -194
-60 -907 -302 -919 -311 -12 -11 -13 -29 -8 -103 4 -49 12 -95 19 -101 9 -9
205 -144 369 -255 36 -24 55 -31 76 -27 21 5 40 -3 79 -29 43 -28 60 -34 106
-34 31 0 70 6 88 14 54 24 131 57 163 71 17 8 107 46 200 85 94 39 188 80 210
89 22 10 64 29 93 41 28 12 53 25 53 29 1 5 4 30 8 79 1 9 8 8 27 -5 46 -30
107 -21 237 35 95 42 122 50 142 42 19 -7 40 -3 97 21 40 17 78 36 85 42 6 7
14 41 18 77 3 36 8 72 11 81 6 20 -33 45 -121 79 -33 13 -65 27 -72 32 -7 6
-17 7 -23 3 -5 -3 -15 6 -21 22 -6 15 -21 42 -35 60 -30 40 -31 85 -3 175 18
57 28 72 58 90 53 31 81 59 81 80 0 38 -48 113 -88 139 -51 34 -141 75 -215
100 -32 11 -66 28 -76 38 -16 16 -62 27 -151 37 -14 1 -35 6 -46 9 -12 4 -24
3 -27 -2z m0 -84 c12 -11 7 -15 -29 -29 -36 -13 -45 -22 -57 -57 -21 -59 -8
-80 89 -148 102 -72 130 -100 130 -130 0 -23 -48 -91 -58 -81 -2 3 -13 1 -24
-5 -28 -15 -169 -12 -263 5 -123 23 -127 24 -309 75 -149 43 -180 48 -247 45
-80 -3 -171 -31 -211 -64 l-23 -19 32 -61 32 -60 -92 -44 c-160 -78 -273 -106
-391 -100 -94 5 -136 21 -136 52 0 33 29 129 56 187 48 101 160 169 404 245
287 89 391 109 452 88 16 -6 40 -26 55 -45 39 -50 100 -83 157 -83 86 0 118
42 120 162 1 46 13 58 72 73 59 15 220 10 241 -6z m268 -113 c50 -8 110 -19
134 -26 l44 -11 -7 -47 c-5 -38 -14 -53 -46 -82 -22 -19 -44 -47 -49 -61 -11
-29 -5 -86 14 -142 7 -20 9 -40 4 -42 -8 -6 7 -62 24 -82 23 -31 -30 -22 -140
23 -65 26 -120 49 -121 50 -2 1 6 16 18 32 26 34 29 81 11 164 -16 75 -42 112
-123 173 -37 27 -67 53 -68 58 0 12 209 8 305 -7z m-371 -641 c-4 -8 -8 -15
-10 -15 -2 0 -4 7 -4 15 0 8 4 15 10 15 5 0 7 -7 4 -15z m-11 -65 c-5 -19 -23
-29 -23 -12 0 7 20 32 26 32 1 0 0 -9 -3 -20z"/>
</g>
</svg>
